<?xml version="1.0" encoding="UTF-8"?><svg xmlns="http://www.w3.org/2000/svg" xmlns:xlink="http://www.w3.org/1999/xlink" width="80" height="88.61566162109375" viewBox="-0.5 -0.40000009536743164 80 88.61566162109375" version="1.1">
    <!-- Generator: Sketch 52.2 (67145) - http://www.bohemiancoding.com/sketch -->
    <title>裁判1</title>
    <desc>Created with Sketch.</desc>
    <g id="Page-1" stroke="none" fill-rule="evenodd">
        <g id="裁判1">
            <path d="M32.4,76.3 L25.9,71.7 C25.8,73.8 21.2,77.6 21.2,77.6 C20.5,78.1 19.5,78.7 19.5,78.7 C17.8,79.6 20.8,82.9 20.8,82.9 C23.5,86.1 24.7,86.8 25.2,86.9 C25.5,87 25.9,86.9 26.3,86.5 C27,85.9 26.7,84.8 26.4,84.1 C26.3,83.7 26.1,83.5 26.1,83.5 C26.5,83.1 30.9,81.3 32.4,76.3 Z" id="路径" fill="#D9373C" stroke-width="1"/>
            <polygon id="路径" fill="#0F1719" points="24.2 73.5 23.6 74.4 28.6 78.7 28.6 76.7" stroke-width="1"/>
            <path d="M45.9,66.6 C48.6,68.6 50.4,66.9 50.4,66.9 C52.7,64.8 50.8,62.1 50.8,62.1 C48.5,59.2 38.6,51.4 38.6,51.4 C38.6,51.4 42.9,54.3 46.9,57.2 C49.6,59.2 51.1,60.8 51.9,62.1 C52.1,62.5 53.7,64.9 51.5,67.4 C50.7,68.3 49.6,68.5 49.2,68.6 C48.1,68.8 46.7,68.6 45.1,67.1 C45.1,67.1 40.3,62.9 37.6,57.2 C37.6,57.2 37.1,56.2 37.1,55.9 C39.3,60.1 45.9,66.6 45.9,66.6 Z" id="路径" fill="#D9373C" stroke-width="1"/>
            <path d="M37.2,52.4 C38.4,50.6 39.7,51.8 40.4,52.3 C43,54.4 49.1,59.8 50.9,62.1 C50.9,62.1 52.8,64.8 50.5,66.9 C50.5,66.9 48.7,68.6 46,66.6 C45.9,66.6 34.3,56.5 37.2,52.4 Z" id="路径" fill="#D9373C" stroke-width="1"/>
            <path d="M60.4,39.3 L50.8,67.5 C50.7,67.8 50.3,68 50,67.9 L48.6,67.4 C48.3,67.3 48.1,66.9 48.2,66.6 L57.8,38.4 C57.9,38.1 58.3,37.9 58.6,38 L60,38.5 C60.3,38.6 60.5,38.9 60.4,39.3 Z" id="路径" fill="#1D292D" stroke-width="1"/>
            <g id="分组">
                <polygon id="路径" fill="#F0F4F5" points="5.9 0.5 0.5 16.4 21.8 23.6 27 7.6" stroke-width="1" transform="matrix(1,0,0,1,52,37)"/>
                <rect id="矩形" fill="#34444B" transform="matrix(0.31838685943555817,-0.9479608682528842,0.9479608682528842,0.31838685943555817,53.37626864101942,46.86166053998549)" x="4.74562442" y="1.17368442" width="5.60023116" height="5.60023116" stroke-width="1"/>
                <rect id="矩形" fill="#34444B" transform="matrix(0.31838685943555817,-0.9479608682528842,0.9479608682528842,0.31838685943555817,49.170684076470295,55.09489819160777)" x="8.36806442" y="8.21478442" width="5.60023116" height="5.60023116" stroke-width="1"/>
                <rect id="矩形" fill="#34444B" transform="matrix(0.31838685943555817,-0.9479608682528842,0.9479608682528842,0.31838685943555817,57.22493335159538,59.55219273017334)" x="15.4947044" y="4.84266442" width="5.60023116" height="5.60023116" stroke-width="1"/>
                <rect id="矩形" fill="#34444B" transform="matrix(0.31838685943555817,-0.9479608682528842,0.9479608682528842,0.31838685943555817,40.932646571103305,50.795638178402285)" x="1.25942442" y="11.7937244" width="5.60023116" height="5.60023116" stroke-width="1"/>
                <rect id="矩形" fill="#34444B" transform="matrix(0.31838685943555817,-0.9479608682528842,0.9479608682528842,0.31838685943555817,44.735463039473494,63.288126428456486)" x="11.8478644" y="15.3955644" width="5.60023116" height="5.60023116" stroke-width="1"/>
                <rect id="矩形" fill="#34444B" transform="matrix(0.31838685943555817,-0.9479608682528842,0.9479608682528842,0.31838685943555817,52.97347391006772,67.58754939906285)" x="18.9566044" y="11.8167244" width="5.60023116" height="5.60023116" stroke-width="1"/>
            </g>
            <path d="M49.7,60.6 C49.7,60.6 52.7,61.7 51.5,63.5 C50.3,65.3 48.6,62.5 48.6,62.5 L49.7,60.6 Z" id="路径" fill="#D9373C" stroke-width="1"/>
            <path d="M36.5,50.9 C39.7,49.1 47.2,56.3 47.2,56.3 L39.5,62.5 C39.5,62.5 33.3,52.7 36.5,50.9 Z" id="路径" fill="#394B4F" stroke-width="1"/>
            <g id="分组">
                <g id="路径">
                    <path d="M 26.2 54.4 C 24.1 62 24.7 73 36.5 71.8 C 24.7 73 24.8 60.6 26.8 52.9 C 25.8 52.7 24.8 52.5 24.1 52.2 C 24.1 52.2 25.3 54.2 26.2 54.4 Z " fill="#F2474D" stroke-width="1"/>
                    <path d="M 37.6 49.6 C 36.2 47.6 33.8 47.2 28.7 47.9 C 27.4 48.1 26.1 48.7 25.2 49.5 C 25.2 49.5 25.2 49.5 25.1 49.6 C 25 49.7 24.9 49.9 24.8 50.1 C 26.2 50.2 27.7 50.3 29.3 50.3 C 32.5 50.3 35.4 50 37.6 49.6 Z " fill="#D9373C" stroke-width="1"/>
                </g>
                <g id="路径">
                    <path d="M 26.2 54.4 C 24.1 62 24.7 73 36.5 71.8 C 24.8 73 24.7 60.8 26.7 53.1 C 25.9 53 25.1 52.9 24.4 52.7 C 24.9 53.4 25.6 54.3 26.2 54.4 Z " stroke-width="1" fill="none"/>
                    <path d="M 41.3 60.5 C 40.9 59.2 39.3 53.5 38.8 52.2 C 37 52.8 34.1 53.3 30.8 53.3 C 29.3 53.3 28 53.2 26.7 53.1 C 24.7 60.8 24.7 73 36.5 71.8 C 38.8 71.6 40.7 70.6 41.9 69.2 C 42.4 66.9 42.3 63.8 41.3 60.5 Z " fill="#FF555F" stroke-width="1"/>
                    <path d="M 36.5 71.8 C 24.7 73 24.1 62.1 26.2 54.4 C 25.6 54.3 24.9 53.4 24.4 52.7 C 24.2 52.7 24.1 52.6 24 52.6 C 23.9 54.2 23.6 58.2 23.3 61.1 C 23.1 63 22.1 64.9 21.9 66.4 C 20.9 71.9 27 76.7 32.8 76.1 C 33.1 76.1 34.1 76 34.4 75.9 C 36.2 75.6 37.9 74.9 39.2 73.9 C 40.5 72.8 41.4 71.2 41.9 69.1 C 40.7 70.6 38.9 71.6 36.5 71.8 Z " fill="#F2474D" stroke-width="1"/>
                    <path d="M 24 52.2 C 24 52.2 24.2 52.5 24.4 52.8 C 25.1 52.9 25.8 53.1 26.7 53.2 C 26.7 53.1 26.7 53.1 26.7 53 C 25.8 52.7 24.8 52.5 24 52.2 Z " fill="#D9373C" stroke-width="1"/>
                    <path d="M 38.1 50.5 C 37.9 50.2 37.8 49.8 37.6 49.6 C 35.4 50 32.5 50.3 29.3 50.3 C 27.7 50.3 26.2 50.2 24.8 50.1 C 24.6 50.4 24.4 50.8 24.2 51.2 C 24.1 51.4 24.1 51.8 24 52.2 C 24.8 52.5 25.8 52.7 26.7 52.9 C 26.7 53 26.7 53 26.7 53.1 C 27.9 53.2 29.3 53.3 30.8 53.3 C 34.1 53.3 37 52.9 38.8 52.2 C 38.6 51.7 38.4 51.3 38.3 50.8 C 38.2 50.8 38.2 50.7 38.1 50.5 Z " fill="#D9373C" stroke-width="1"/>
                    <path d="M 24 52.2 C 24 52.3 24 52.5 24 52.7 C 24.1 52.7 24.3 52.8 24.4 52.8 C 24.2 52.4 24.1 52.2 24 52.2 Z " fill="#D9373C" stroke-width="1"/>
                </g>
            </g>
            <path d="M24.8,49.8 C26.1,49.6 27.5,49.5 28.9,49.7 C27.2,49.7 25.9,49.7 24.8,49.8 Z" id="路径" fill="#F2474D" stroke-width="1"/>
            <path d="M28.9,49.7 C30,49.7 31.2,49.7 32.5,49.8 C32.4,50.1 32.3,50.4 32.2,50.7 C31.2,50.1 30,49.8 28.9,49.7 Z" id="路径" fill="#D7262C" stroke-width="1"/>
            <polygon id="矩形_2_1_" fill="#C0B3B3" points="28.3 5.8 30.1 5.8 30.4 9.2 28.1 9.2" stroke-width="1"/>
            <path d="M55.9,24 L51.4,24 L51.4,38 L55.9,38 C56.7,38 57.4,34.9 57.4,31 C57.3,27.1 56.7,24 55.9,24 Z" id="路径" fill="#D7262C" stroke-width="1"/>
            <path d="M52,43.9 C51.4,45.5 50,48.1 46.1,49.1 C42.9,49.9 37.7,50.8 29.2,50.8 C20.7,50.8 15.5,49.9 12.3,49.1 C8.5,48.1 7,45.5 6.4,43.9 C5.4,41.3 4.5,36.9 4.5,30.8 C4.5,23.2 5.2,18.7 6,16.2 C6.8,13.8 8.4,12.3 11.2,11.4 C15,10.1 21.5,8.4 29.2,8.4 C36.9,8.4 43.4,10.2 47.2,11.4 C50,12.3 51.6,13.8 52.4,16.2 C53.3,18.8 53.9,23.3 53.9,30.8 C53.9,36.8 53,41.2 52,43.9 Z" id="矩形_1_拷贝_1_" fill="#FF555F" stroke-width="1"/>
            <path d="M18.5,48.5 C14.7,47.5 13.2,44.9 12.6,43.3 C11.6,40.7 10.7,36.3 10.7,30.2 C10.7,22.6 11.4,18.1 12.2,15.6 C13,13.2 14.6,11.7 17.4,10.8 C19.7,10 21.4,9.1 25.4,8.5 C19.4,8.9 14.4,10.3 11.2,11.4 C8.4,12.3 6.8,13.8 6,16.2 C5.1,18.8 4.5,23.3 4.5,30.8 C4.5,36.9 5.5,41.3 6.4,43.9 C7,45.5 8.4,48.1 12.3,49.1 C15.5,49.9 20.7,50.8 29.2,50.8 C34.8,50.8 39,50.4 42.1,49.9 C39.8,50.1 37,50.2 33.9,50.2 C25.3,50.2 21.7,49.3 18.5,48.5 Z" id="路径" fill="#F2474D" stroke-width="1"/>
            <g id="分组">
                <path d="M 29.2 50.7 C 30.2 50.7 31.1 50.7 31.9 50.7 L 27.9 50.7 C 28.4 50.7 28.8 50.7 29.2 50.7 Z " id="路径" stroke-width="1" fill="#F2474D"/>
                <path d="M 40.5 9.5 C 40.3 9.4 40.1 9.4 39.9 9.4 C 40.1 9.4 40.3 9.5 40.5 9.5 Z " id="路径" stroke-width="1" fill="#F2474D"/>
            </g>
            <path d="M51.3,21.3 C51,20.6 44.4,17.5 34.7,17.5 C34.7,17.5 34.7,17.5 34.6,17.5 C34.6,17.5 34.6,17.5 34.5,17.5 C31.9,17.5 29.3,17.7 26.7,18.2 C19,19.6 18.1,20.6 17.9,21.4 C17.3,23.1 17.5,26.8 17.5,31.7 C17.5,35.9 18.2,41 18.6,41.4 C19.3,42.1 20.8,42.5 23.3,43.1 C25.4,43.6 28.8,44.3 34.5,44.3 L34.6,44.3 L34.7,44.3 C40.3,44.3 43.8,43.6 45.9,43.1 C48.4,42.5 49.9,42.1 50.6,41.4 C51,41 51.7,35.8 51.7,31.7 C51.8,26.7 51.9,22.9 51.3,21.3 Z" id="路径" fill="#600E12" stroke-width="1"/>
            <g id="椭圆_2_拷贝_2_">
                <path d="M 26.6 27.7 C 29.3 27.7 31.3 30.7 29.3 33.5 C 29.2 33.7 29 33.8 28.9 33.9 C 26.1 35.8 23.1 33.8 23.1 31.2 C 23.1 29.3 24.7 27.7 26.6 27.7 Z " id="路径" stroke-width="1" fill="#FFFFFF"/>
            </g>
            <g id="椭圆_2_拷贝_7_">
                <path d="M 44.2 27.3 C 46.9 27.3 48.9 30.3 46.9 33.1 C 46.8 33.3 46.6 33.4 46.5 33.5 C 43.7 35.4 40.7 33.4 40.7 30.8 C 40.7 28.9 42.2 27.3 44.2 27.3 Z " id="路径" stroke-width="1" fill="#FFFFFF"/>
            </g>
            <circle id="椭圆_1_1_" fill="#6F85EB" cx="29.2" cy="3.3" r="3.2" stroke-width="1"/>
            <circle id="椭圆_21_2_" fill="#FFFFFF" cx="30.8" cy="2" r="1" stroke-width="1"/>
            <path d="M18.1,34.7 C19.7,34.7 21,35.4 21,36.2 C21,37 19.7,37.7 18.1,37.7 C16.5,37.7 15.2,37 15.2,36.2 C15.2,35.4 16.5,34.7 18.1,34.7 Z" id="椭圆_3_1_" fill="#FFCF55" stroke-width="1"/>
            <path d="M51.5,34.7 C53.1,34.7 54.4,35.4 54.4,36.2 C54.4,37 53.1,37.7 51.5,37.7 C49.9,37.7 48.6,37 48.6,36.2 C48.6,35.4 49.8,34.7 51.5,34.7 Z" id="椭圆_3_拷贝_3_" fill="#FFCF55" stroke-width="1"/>
            <g id="分组">
                <path d="M 5.3 38 C 5.6 38 5.9 37.9 6.1 37.6 C 5.8 37.8 5.4 37.9 5 38 C 5.1 38 5.2 38 5.3 38 Z " id="路径" fill="#F2474D" stroke-width="1"/>
                <path d="M 5.3 24 C 5.2 24 5.1 24 5.1 24 C 5.6 24.1 6.1 24.3 6.5 24.6 C 6.1 24.2 5.7 24 5.3 24 Z " id="路径" fill="#F2474D" stroke-width="1"/>
                <path d="M 7.4 24.6 C 7 24.2 6.6 24 6 24 C 5.9 24 5.8 24 5.7 24 L 2.5 24 C 1.7 24 2.5 27.1 2.5 31 C 2.5 34.9 1.7 38 2.5 38 L 5.8 38 C 5.9 38 6 38 6.1 38 C 6.5 38 6.9 37.8 7.2 37.6 C 8.1 36.6 8.8 34 8.8 31 C 8.8 28.1 8.3 25.6 7.4 24.6 Z " id="路径" fill="#D7262C" stroke-width="1"/>
            </g>
            <path d="M0,31 C0,34.9 0.8,38 2.3,38 C3.8,38 4.8,34.9 4.8,31 C4.8,27.1 4.1,24 2.3,24 C0.7,24 0,27.1 0,31 Z" id="路径" fill="#D9373C" stroke-width="1"/>
            <g id="分组">
                <path d="M 35.9 84.1 C 36 83.6 37.4 75.2 37.6 74.5 L 28.3 75 C 28.4 75.6 28.5 77.4 28.5 78 C 28.9 80.8 29 83.8 29 83.8 C 28.9 84.7 28.7 85.8 28.7 85.8 C 28.3 87.7 31.7 87.7 31.7 87.7 C 35.9 87.8 37.2 87.4 37.6 87.1 C 37.9 86.9 38 86.6 38.1 86 C 38.1 85.1 37.2 84.5 36.5 84.3 C 36.2 84.2 35.9 84.1 35.9 84.1 Z " id="路径" fill="#F2474D" stroke-width="1"/>
                <path d="M 34.7 86.4 C 33.2 86.4 33.7 85.3 33.7 85.3 C 34.1 84 36 84.2 36 84.2 C 36.1 84.2 36.3 84.2 36.4 84.3 C 37.1 84.5 38.1 85 38.2 85.9 C 37.2 86.7 34.7 86.4 34.7 86.4 Z " id="路径" fill="#FF555F" stroke-width="1"/>
            </g>
            <path d="M22.3,71.2 C22.2,71.7 24.3,73.6 25.6,75 C26.8,76.3 27.5,77.6 27.5,77.6 C27.5,77.6 33.5,79.5 38,77.6 C38.4,77.2 41.7,71.4 41.6,70.8 C41.5,70.1 22.6,70.3 22.3,71.2 Z" id="路径" fill="#273438" stroke-width="1"/>
            <path d="M30.5,78.1 C30.5,78.1 33.4,78.4 35,78.2 C34,74.7 34.1,70 30.7,70.2 C29.7,70.3 29.8,70.9 29.2,71.4 C28.6,73.5 30.5,78.1 30.5,78.1 Z" id="路径" fill="#0F1719" stroke-width="1"/>
            <path d="M21.8,71.2 L24.5,54.8 L26.3,52.4 C26.3,52.4 33.5,58 34.7,56.9 C35.9,55.8 38.3,50.9 38.3,50.9 C38.3,50.9 42,59.6 42.1,64.6 C42.3,69.6 42.1,70.3 42.1,70.3 C42.1,70.3 39.6,72.6 32.5,72.8 C25.4,73 21.8,71.2 21.8,71.2 Z" id="路径" fill="#0F1719" stroke-width="1"/>
            <path d="M16.7,58.3 C16.7,58.3 17,59 17.9,59.6 C18.7,60.3 19.4,58.4 19.4,58.4 L16.7,58.3 Z" id="路径" fill="#0F1719" stroke-width="1"/>
            <g id="分组">
                <path d="M 16.1 66.2 C 15.5 69.7 17.9 70.6 17.9 70.6 C 20.9 71.7 21.9 68.7 21.9 68.7 C 23.6 65.2 25.9 58.2 25.9 58.2 C 25.9 58.2 25.8 59 24.9 64.1 C 24.3 67.6 23.9 68.5 23 69.9 C 22.8 70.3 21.2 72.8 17.9 71.9 C 16.8 71.6 16 70.6 15.7 70.3 C 15 69.4 14.6 67.9 15.2 65.9 C 15.2 65.9 20 53.2 24 51.5 C 21.1 55.2 16.1 66.2 16.1 66.2 Z " id="路径" fill="#D9373C" stroke-width="1"/>
                <path d="M 25 51.2 C 27.4 51 27.3 53.6 27 54.5 C 24.1 63.6 23.8 66.1 22.5 68.8 C 22.5 68.8 20.9 71.7 17.9 70.6 C 17.9 70.6 14.7 69.3 16 66 C 18.9 58.1 21.7 51.4 25 51.2 Z " id="路径" fill="#F2474D" stroke-width="1"/>
                <path d="M 24.4 51.9 C 26 51.8 26.8 52.7 27.1 53.6 C 27.2 52.5 26.8 51 25 51.1 C 24.2 51.2 23.4 51.6 22.6 52.5 C 23.2 52.2 23.8 52 24.4 51.9 Z " id="路径" fill="#D9373C" stroke-width="1"/>
            </g>
            <path d="M24.3,50.6 C23.9,50.4 15.6,58.5 16.8,58.4 C18,58.2 25.3,61.1 25.3,61.1 L27.9,53.7 C27.9,53.6 24.7,50.8 24.3,50.6 Z" id="路径" fill="#394B4F" stroke-width="1"/>
            <path d="M24.2,51.1 C24.3,51.2 31.6,57.4 34.2,57.3 C36.4,57.2 38.2,53.7 38.4,51 C38.4,50.5 38.1,50.6 38.1,50.6 C38.1,50.6 36.1,55.5 34.4,55.9 C32.7,56.3 24.7,51 24.4,50.8 C24.2,50.6 24.2,51 24.2,51.1 Z" id="路径" fill="#394B4F" stroke-width="1"/>
        </g>
    </g>
</svg>